<?xml version="1.0" encoding="iso-8859-1"?>
<!-- Uploaded to: SVG Repo, www.svgrepo.com, Generator: SVG Repo Mixer Tools -->
<svg height="800px" width="800px" version="1.1" id="Layer_1" xmlns="http://www.w3.org/2000/svg" xmlns:xlink="http://www.w3.org/1999/xlink" 
	 viewBox="0 0 512 512" xml:space="preserve">
<circle style="fill:#FF314F;" cx="256" cy="256" r="256"/>
<path style="fill:#930000;" d="M221.941,402.675l97.39,101.423C430.083,475.912,512,375.525,512,256
	c0-11.933-0.836-23.671-2.415-35.169L398.222,109.468l-2.925,4.31h-43.332l-2.586-2.586l-1.586,2.586h-9.188v14.976l-25.715,41.913
	l26.081,26.081l-38.572,56.816l-24.631-24.631l-91.226,14.451l68.099,70.166v10.364l-0.805,1.186l0.805,0.805v75.764
	L221.941,402.675z"/>
<path style="fill:#FFFFFF;" d="M361.158,166.264c0,58.077-47.082,105.158-105.158,105.158S150.842,224.34,150.842,166.264H361.158z"
	/>
<path style="fill:#D0D1D3;" d="M361.158,166.264H256.576v105.144C314.387,271.096,361.158,224.147,361.158,166.264z"/>
<polygon style="fill:#FFAD9E;" points="288.299,229.483 280.59,225.628 338.67,109.468 398.222,109.468 398.222,118.088 
	343.997,118.088 "/>
<path style="fill:#FFC61B;" d="M355.168,201.266H156.832c13.702,38.815,49.53,67.17,92.339,69.918v119.508h-22.761
	c-3.772,0-6.828,3.056-6.828,6.828l0,0c0,3.772,3.056,6.828,6.828,6.828h59.18c3.772,0,6.828-3.056,6.828-6.828
	s-3.056-6.828-6.828-6.828H262.83V271.184C305.638,268.436,341.466,240.081,355.168,201.266z"/>
<path style="fill:#EAA22F;" d="M355.168,201.266h-98.594v203.083h29.015c3.772,0,6.828-3.056,6.828-6.828s-3.056-6.828-6.828-6.828
	h-22.761V271.184C305.638,268.436,341.466,240.081,355.168,201.266z"/>
</svg>