<?xml version="1.0" encoding="iso-8859-1"?>
<!-- Uploaded to: SVG Repo, www.svgrepo.com, Generator: SVG Repo Mixer Tools -->
<svg version="1.1" id="Layer_1" xmlns="http://www.w3.org/2000/svg" xmlns:xlink="http://www.w3.org/1999/xlink" 
	 viewBox="0 0 512 512" xml:space="preserve">
<circle style="fill:#273B7A;" cx="256" cy="256" r="256"/>
<path style="fill:#121149;" d="M279.057,510.955c108.547-9.692,197.587-87.121,224.546-189.728L288.797,103.874l-0.026,6.185
	l-29.079-28.346l-0.107,51.166l-28.484-29.974l-0.095,27.827l-4.168-4.168l-1.865,48.576l53.476,53.314l9.194-9.194l13.9,13.9
	l14.222-14.222l7.234,7.234L182.017,413.917L279.057,510.955z"/>
<g>
	<path style="fill:#FFEDB5;" d="M366.042,372.795h-81.598c-4.284,0-7.758-3.474-7.758-7.758s3.474-7.758,7.758-7.758h81.598
		c13.467,0,24.423-9.993,24.423-22.276V262.33c0-12.283-10.955-22.276-24.423-22.276h-81.598c-4.284,0-7.758-3.474-7.758-7.758
		s3.474-7.758,7.758-7.758h81.598c22.021,0,39.938,16.953,39.938,37.791v72.673C405.98,355.842,388.063,372.795,366.042,372.795z"/>
	<path style="fill:#FFEDB5;" d="M256,154.505c-2.857,0-5.172-2.315-5.172-5.172v-64c0-2.857,2.315-5.172,5.172-5.172
		s5.172,2.315,5.172,5.172v64C261.172,152.19,258.857,154.505,256,154.505z"/>
	<path style="fill:#FFEDB5;" d="M227.556,175.838c-2.857,0-5.172-2.315-5.172-5.172v-64c0-2.857,2.315-5.172,5.172-5.172
		c2.857,0,5.172,2.315,5.172,5.172v64C232.727,173.523,230.412,175.838,227.556,175.838z"/>
	<path style="fill:#FFEDB5;" d="M284.444,175.838c-2.857,0-5.172-2.315-5.172-5.172v-64c0-2.857,2.315-5.172,5.172-5.172
		s5.172,2.315,5.172,5.172v64C289.616,173.523,287.301,175.838,284.444,175.838z"/>
</g>
<path style="fill:#FEE187;" d="M211.754,426.667h88.493c22.692,0,41.086-18.396,41.086-41.086v-186.47H170.667v186.47
	C170.667,408.271,189.062,426.667,211.754,426.667z"/>
<g>
	<path style="fill:#FFC61B;" d="M255.426,199.111v227.556h44.822c22.692,0,41.086-18.396,41.086-41.086v-186.47H255.426z"/>
	<rect x="170.667" y="199.111" style="fill:#FFC61B;" width="170.667" height="37.926"/>
</g>
<rect x="255.431" y="199.111" style="fill:#EAA22F;" width="85.907" height="37.926"/>
</svg>