<?xml version="1.0" encoding="iso-8859-1"?>
<!-- Uploaded to: SVG Repo, www.svgrepo.com, Generator: SVG Repo Mixer Tools -->
<svg height="800px" width="800px" version="1.1" id="Layer_1" xmlns="http://www.w3.org/2000/svg" xmlns:xlink="http://www.w3.org/1999/xlink" 
	 viewBox="0 0 512 512" xml:space="preserve">
<circle style="fill:#273B7A;" cx="256" cy="256" r="256"/>
<path style="fill:#121149;" d="M257.636,511.979C398.265,511.097,512,396.838,512,256c0-2.481-0.045-4.949-0.114-7.413
	L409.353,146.054c-1.395,0-6.78,51.369-10.985,93.729l-49.433-49.433c0-1.92-49.609,92.089-70.696,132.136L175.094,219.339
	l7.044-7.044l-11.885-11.885l11.419-11.419l-40.474-40.472l-4.274,18.563l-18.563-18.563l-4.674,17.386L96.301,148.52l-8.911,48.15
	l4.355,4.355l-0.274,6.242l23.559,22.399l-1.422,138.285L257.636,511.979z"/>
<path style="fill:#FFFFFF;" d="M426.667,186.675c0-17.111-12.062-44.453-26.941-44.453c-14.879,0-26.941,27.343-26.941,44.453
	c0,14.808,9.04,27.172,21.116,30.236v72.156h11.65V216.91C417.626,213.847,426.667,201.485,426.667,186.675z"/>
<path style="fill:#FF7F4F;" d="M389.435,265.059h20.578v92.603c0,5.682-4.606,10.288-10.29,10.288l0,0
	c-5.682,0-10.29-4.606-10.29-10.288v-92.603H389.435z"/>
<path style="fill:#FFFFFF;" d="M136.056,145.43c-3.217,0-5.825,2.608-5.825,5.825v41.479c0,4.863-4.058,8.819-9.045,8.819h-1.753
	V151.88c0-3.217-2.608-5.825-5.825-5.825s-5.825,2.608-5.825,5.825v49.673h-1.753c-4.987,0-9.045-3.956-9.045-8.819v-41.477
	c0-3.217-2.608-5.825-5.825-5.825c-3.217,0-5.825,2.608-5.825,5.825v41.479c0,11.286,9.283,20.47,20.695,20.47h1.753v75.864
	c0,3.217,2.608,5.825,5.825,5.825c3.217,0,5.825-2.608,5.825-5.825v-75.864h1.753c11.412,0,20.695-9.183,20.695-20.47v-41.479
	C141.881,148.039,139.273,145.43,136.056,145.43z"/>
<path style="fill:#FF7F4F;" d="M103.319,265.059h20.578v92.603c0,5.682-4.606,10.288-10.29,10.288l0,0
	c-5.682,0-10.288-4.606-10.288-10.288C103.319,357.662,103.319,265.059,103.319,265.059z"/>
<circle style="fill:#FEE187;" cx="256" cy="256" r="113.778"/>
<path style="fill:#FFC61B;" d="M369.778,256c0-62.838-50.94-113.778-113.778-113.778v227.556
	C318.838,369.778,369.778,318.838,369.778,256z"/>
<circle style="fill:#FFEDB5;" cx="256" cy="256" r="85.333"/>
<path style="fill:#FEE187;" d="M341.333,256c0-47.128-38.205-85.333-85.333-85.333v170.667
	C303.128,341.333,341.333,303.128,341.333,256z"/>
</svg>