<?xml version="1.0" encoding="iso-8859-1"?>
<!-- Uploaded to: SVG Repo, www.svgrepo.com, Generator: SVG Repo Mixer Tools -->
<svg height="800px" width="800px" version="1.1" id="Layer_1" xmlns="http://www.w3.org/2000/svg" xmlns:xlink="http://www.w3.org/1999/xlink" 
	 viewBox="0 0 512 512" xml:space="preserve">
<circle style="fill:#FEE187;" cx="256" cy="256" r="256"/>
<path style="fill:#FFC61B;" d="M302.127,507.845c91.598-16.668,166.188-82.075,195.943-168.376l-64.565-66.294l-11.664,1.845
	L317.566,168.472l-5.573,22.847l-52.014-52.4l-3.103,14.167l0,0l-0.724,67.436l-54.165-54.165l1.581,38.572l-1.976-1.976
	l-5.067,57.356l24.481,20.745l-141.024,3.999L302.127,507.845z"/>
<path style="fill:#E09112;" d="M333.89,353.989H178.111c-10.473,0-18.963-8.49-18.963-18.963v-1.724h193.705v1.724
	C352.852,345.498,344.362,353.989,333.89,353.989z"/>
<path style="fill:#FF5419;" d="M255.426,333.302v20.687h78.464c10.473,0,18.963-8.49,18.963-18.963v-1.724H255.426z"/>
<path style="fill:#C92F00;" d="M354.263,339.884H157.737c-31.418,0-56.889-25.471-56.889-56.889v-5.172h310.303v5.172
	C411.152,314.415,385.681,339.884,354.263,339.884z"/>
<path style="fill:#930000;" d="M255.426,277.823v62.061h98.837c31.418,0,56.889-25.471,56.889-56.889v-5.172H255.426z"/>
<g>
	<path style="fill:#C92F00;" d="M256,232.727c-2.857,0-5.172-2.315-5.172-5.172v-85.333c0-2.857,2.315-5.172,5.172-5.172
		s5.172,2.315,5.172,5.172v85.333C261.172,230.412,258.857,232.727,256,232.727z"/>
	<path style="fill:#C92F00;" d="M199.111,261.172c-2.857,0-5.172-2.315-5.172-5.172v-85.333c0-2.857,2.315-5.172,5.172-5.172
		c2.857,0,5.172,2.315,5.172,5.172V256C204.283,258.857,201.968,261.172,199.111,261.172z"/>
	<path style="fill:#C92F00;" d="M312.889,261.172c-2.857,0-5.172-2.315-5.172-5.172v-85.333c0-2.857,2.315-5.172,5.172-5.172
		s5.172,2.315,5.172,5.172V256C318.061,258.857,315.745,261.172,312.889,261.172z"/>
</g>
<path style="fill:#FF5419;" d="M426.667,287.03H85.333c-4.761,0-8.62-3.858-8.62-8.62s3.858-8.62,8.62-8.62h341.333
	c4.761,0,8.62,3.858,8.62,8.62S431.428,287.03,426.667,287.03z"/>
<path style="fill:#C92F00;" d="M426.667,269.791H255.426v17.239h171.241c4.761,0,8.62-3.858,8.62-8.62
	S431.428,269.791,426.667,269.791z"/>
</svg>