<?xml version="1.0" encoding="iso-8859-1"?>
<!-- Uploaded to: SVG Repo, www.svgrepo.com, Generator: SVG Repo Mixer Tools -->
<svg height="800px" width="800px" version="1.1" id="Layer_1" xmlns="http://www.w3.org/2000/svg" xmlns:xlink="http://www.w3.org/1999/xlink" 
	 viewBox="0 0 512 512" xml:space="preserve">
<circle style="fill:#FEE187;" cx="256" cy="256" r="256"/>
<path style="fill:#FFC61B;" d="M508.368,299.103L329.945,120.68L256,136.189v288.64l-29.591,1.886l80.262,80.262
	C409.912,486.245,490.68,403.411,508.368,299.103z"/>
<path style="fill:#C92F00;" d="M285.591,413.056H262.83V284.832h-13.657v128.224h-22.761c-3.772,0-6.828,3.056-6.828,6.828
	s3.056,6.828,6.828,6.828h59.18c3.772,0,6.828-3.056,6.828-6.828C292.418,416.113,289.361,413.056,285.591,413.056z"/>
<path style="fill:#930000;" d="M285.591,413.056H262.83V284.832h-7.402v141.881h30.165c3.772,0,6.828-3.056,6.828-6.828
	C292.418,416.113,289.361,413.056,285.591,413.056z"/>
<path style="fill:#FFFFFF;" d="M182.055,120.68c-12.007,32.932-19.146,67.932-19.146,91.527c0,57.029,41.679,103.26,93.091,103.26
	s93.091-46.232,93.091-103.26c0-23.595-7.139-58.594-19.146-91.526h-147.89V120.68z"/>
<path style="fill:#D0D1D3;" d="M329.945,120.68h-74.519v194.77c0.193,0.002,0.381,0.016,0.574,0.016
	c51.412,0,93.091-46.232,93.091-103.26C349.091,188.613,341.952,153.612,329.945,120.68z"/>
<path style="fill:#930000;" d="M164.159,193.077c-0.817,6.923-1.25,13.371-1.25,19.13c0,57.029,41.679,103.26,93.091,103.26
	s93.091-46.232,93.091-103.26c0-5.76-0.433-12.207-1.25-19.13H164.159z"/>
<path style="fill:#600000;" d="M347.841,193.077h-92.415v122.373c0.193,0.002,0.381,0.016,0.574,0.016
	c51.412,0,93.091-46.232,93.091-103.26C349.091,206.448,348.658,200.001,347.841,193.077z"/>
</svg>